<?xml version="1.0" encoding="iso-8859-1"?>
<!DOCTYPE svg PUBLIC "-//W3C//DTD SVG 1.1//EN" "http://www.w3.org/Graphics/SVG/1.1/DTD/svg11.dtd">
<svg 
 version="1.1" xmlns="http://www.w3.org/2000/svg" xmlns:xlink="http://www.w3.org/1999/xlink" x="0px" y="0px" width="512px"
	 height="512px" viewBox="0 0 512 512" enable-background="new 0 0 512 512" xml:space="preserve"
><g id="e6c6b53d3c8160b22dad35a0f70aef6d"><g></g><path display="inline" d="M473.137,103.259c-4.952-6.553-12.684-10.408-20.894-10.408H164.24l-9.287-69.644
		C153.224,10.208,142.134,0.5,129.02,0.5H59.756c-14.448,0-26.163,11.718-26.163,26.165c0,14.45,11.715,26.168,26.163,26.168h46.349
		l43.152,323.599c1.737,13.001,12.819,22.709,25.937,22.709h207.785c14.448,0,26.163-11.72,26.163-26.167
		c0-14.448-11.715-26.168-26.163-26.168H198.104l-5.336-40.011h213.299c11.685,0,21.949-7.745,25.155-18.979l46.18-161.611
		C479.652,118.31,478.076,109.813,473.137,103.259z M386.333,254.462H185.79l-14.571-109.278h246.33L386.333,254.462z
		 M244.454,465.324c0,25.503-20.672,46.176-46.171,46.176c-25.503,0-46.175-20.673-46.175-46.176s20.672-46.176,46.175-46.176
		C223.781,419.148,244.454,439.821,244.454,465.324z M406.067,465.324c0,25.503-20.673,46.176-46.176,46.176
		c-25.498,0-46.175-20.673-46.175-46.176s20.677-46.176,46.175-46.176C385.395,419.148,406.067,439.821,406.067,465.324z"></path></g></svg>